<?xml version="1.0" encoding="UTF-8"?>
<svg id="_圖層_1" data-name="圖層 1" xmlns="http://www.w3.org/2000/svg" xmlns:xlink="http://www.w3.org/1999/xlink" viewBox="0 0 1080 540">
  <defs>
    <style>
      .cls-1 {
        fill: url(#_未命名漸層_5);
      }

      .cls-2 {
        fill: url(#_未命名漸層_5-7);
      }

      .cls-3 {
        fill: url(#_未命名漸層_5-2);
      }

      .cls-4 {
        fill: url(#_未命名漸層_5-8);
      }

      .cls-5 {
        fill: url(#_未命名漸層_5-6);
      }

      .cls-6 {
        fill: url(#_未命名漸層_5-5);
      }

      .cls-7 {
        fill: url(#_未命名漸層_5-3);
      }

      .cls-8 {
        fill: url(#_未命名漸層_5-9);
      }

      .cls-9 {
        fill: url(#_未命名漸層_5-4);
      }

      .cls-10 {
        fill: url(#_未命名漸層_5-13);
      }

      .cls-11 {
        fill: url(#_未命名漸層_5-12);
      }

      .cls-12 {
        fill: url(#_未命名漸層_5-15);
      }

      .cls-13 {
        fill: url(#_未命名漸層_5-14);
      }

      .cls-14 {
        fill: url(#_未命名漸層_5-11);
      }

      .cls-15 {
        fill: url(#_未命名漸層_5-10);
      }

      .cls-16 {
        fill: url(#_未命名漸層_5-16);
      }

      .cls-17 {
        fill: url(#_未命名漸層_5-17);
      }

      .cls-18 {
        fill: url(#_未命名漸層_5-19);
      }

      .cls-19 {
        fill: url(#_未命名漸層_5-18);
      }

      .cls-20 {
        fill: url(#_未命名漸層_5-23);
      }

      .cls-21 {
        fill: url(#_未命名漸層_5-24);
      }

      .cls-22 {
        fill: url(#_未命名漸層_5-22);
      }

      .cls-23 {
        fill: url(#_未命名漸層_5-20);
      }

      .cls-24 {
        fill: url(#_未命名漸層_5-21);
      }
    </style>
    <linearGradient id="_未命名漸層_5" data-name="未命名漸層 5" x1="880.88" y1="181.59" x2="905.32" y2="181.59" gradientUnits="userSpaceOnUse">
      <stop offset="0" stop-color="#94c2fe"/>
      <stop offset=".07" stop-color="#9dc6fb"/>
      <stop offset=".18" stop-color="#b5d1f5"/>
      <stop offset=".3" stop-color="#d9e1ec"/>
      <stop offset=".52" stop-color="#e8e8e8"/>
      <stop offset=".74" stop-color="#e8eae1"/>
      <stop offset=".79" stop-color="#f0d1cb"/>
      <stop offset=".86" stop-color="#f8bab7"/>
      <stop offset=".93" stop-color="#fdabab"/>
      <stop offset=".98" stop-color="#ffa7a7"/>
    </linearGradient>
    <linearGradient id="_未命名漸層_5-2" data-name="未命名漸層 5" x1="949.67" x2="974.11" xlink:href="#_未命名漸層_5"/>
    <linearGradient id="_未命名漸層_5-3" data-name="未命名漸層 5" x1="985.34" y1="182.14" x2="1008.09" y2="182.14" xlink:href="#_未命名漸層_5"/>
    <linearGradient id="_未命名漸層_5-4" data-name="未命名漸層 5" x1="913.61" y1="182.04" x2="939.88" y2="182.04" xlink:href="#_未命名漸層_5"/>
    <linearGradient id="_未命名漸層_5-5" data-name="未命名漸層 5" x1="288.91" y1="89.09" x2="299.96" y2="69.94" xlink:href="#_未命名漸層_5"/>
    <linearGradient id="_未命名漸層_5-6" data-name="未命名漸層 5" x1="273.59" y1="137.84" x2="298.56" y2="94.58" xlink:href="#_未命名漸層_5"/>
    <linearGradient id="_未命名漸層_5-7" data-name="未命名漸層 5" x1="322.67" y1="133.51" x2="356.77" y2="74.44" xlink:href="#_未命名漸層_5"/>
    <linearGradient id="_未命名漸層_5-8" data-name="未命名漸層 5" x1="383.01" y1="90.84" x2="395.36" y2="69.45" xlink:href="#_未命名漸層_5"/>
    <linearGradient id="_未命名漸層_5-9" data-name="未命名漸層 5" x1="379.18" y1="138.32" x2="399.19" y2="103.65" xlink:href="#_未命名漸層_5"/>
    <linearGradient id="_未命名漸層_5-10" data-name="未命名漸層 5" x1="472.35" y1="130.34" x2="500.47" y2="81.63" xlink:href="#_未命名漸層_5"/>
    <linearGradient id="_未命名漸層_5-11" data-name="未命名漸層 5" x1="525.26" y1="89.09" x2="536.31" y2="69.95" xlink:href="#_未命名漸層_5"/>
    <linearGradient id="_未命名漸層_5-12" data-name="未命名漸層 5" x1="524.86" y1="113.99" x2="535.77" y2="95.08" xlink:href="#_未命名漸層_5"/>
    <linearGradient id="_未命名漸層_5-13" data-name="未命名漸層 5" x1="525.3" y1="144.42" x2="535.32" y2="127.06" xlink:href="#_未命名漸層_5"/>
    <linearGradient id="_未命名漸層_5-14" data-name="未命名漸層 5" x1="419.28" y1="135.09" x2="453.39" y2="76.02" xlink:href="#_未命名漸層_5"/>
    <linearGradient id="_未命名漸層_5-15" data-name="未命名漸層 5" x1="976.31" y1="138.87" x2="1010.09" y2="80.36" xlink:href="#_未命名漸層_5"/>
    <linearGradient id="_未命名漸層_5-16" data-name="未命名漸層 5" x1="929.26" y1="145.45" x2="963.94" y2="85.39" xlink:href="#_未命名漸層_5"/>
    <linearGradient id="_未命名漸層_5-17" data-name="未命名漸層 5" x1="882.19" y1="131.46" x2="907.27" y2="88.01" xlink:href="#_未命名漸層_5"/>
    <linearGradient id="_未命名漸層_5-18" data-name="未命名漸層 5" x1="749.59" y1="135.51" x2="780.6" y2="81.81" xlink:href="#_未命名漸層_5"/>
    <linearGradient id="_未命名漸層_5-19" data-name="未命名漸層 5" x1="593.65" y1="130.55" x2="627.91" y2="71.21" xlink:href="#_未命名漸層_5"/>
    <linearGradient id="_未命名漸層_5-20" data-name="未命名漸層 5" x1="638.11" y1="133.67" x2="667.16" y2="83.35" xlink:href="#_未命名漸層_5"/>
    <linearGradient id="_未命名漸層_5-21" data-name="未命名漸層 5" x1="683.22" y1="97.58" x2="695.82" y2="75.76" xlink:href="#_未命名漸層_5"/>
    <linearGradient id="_未命名漸層_5-22" data-name="未命名漸層 5" x1="682.67" y1="141.68" x2="701.89" y2="108.39" xlink:href="#_未命名漸層_5"/>
    <linearGradient id="_未命名漸層_5-23" data-name="未命名漸層 5" x1="802.45" y1="129.27" x2="832.79" y2="76.72" xlink:href="#_未命名漸層_5"/>
    <linearGradient id="_未命名漸層_5-24" data-name="未命名漸層 5" x1="713.61" y1="133.97" x2="742.66" y2="83.66" xlink:href="#_未命名漸層_5"/>
  </defs>
  <g>
    <path class="cls-1" d="M904.82,195.64v4.78h-23.94v-2.8c0-8.74,3.49-12.25,11.25-16.77,2.99-1.73,7.48-4.07,7.48-7.73,0-3-2.99-5.59-6.21-5.59-3.93,0-8.7,1.88-11.8,3.96v-5.64c2.99-2.08,7.26-3.1,10.92-3.1,6.93,0,12.8,3.35,12.8,10.17s-5.32,9.3-10.75,12.5c-3.6,2.19-7.98,5.18-7.98,9.45v.76h18.23Z"/>
    <path class="cls-3" d="M973.61,195.64v4.78h-23.94v-2.8c0-8.74,3.49-12.25,11.25-16.77,2.99-1.73,7.48-4.07,7.48-7.73,0-3-2.99-5.59-6.21-5.59-3.93,0-8.7,1.88-11.8,3.96v-5.64c2.99-2.08,7.26-3.1,10.92-3.1,6.93,0,12.8,3.35,12.8,10.17s-5.32,9.3-10.75,12.5c-3.6,2.19-7.98,5.18-7.98,9.45v.76h18.23Z"/>
    <path class="cls-7" d="M990.96,175.36h1.34c8.34,0,15.8,3.3,15.8,11.84,0,12.5-15.85,13.67-20.86,13.67h-1.89v-4.78h3.28c6.51,0,13.74-1.93,13.74-8.95,0-6.56-6.84-7.22-10.13-7.01l-6.9,.46,1.22-17.18h20.42v4.78h-15.35l-.67,7.17Z"/>
    <path class="cls-9" d="M926.75,162.8c-7.25,0-13.13,5.7-13.13,12.73v13.03c0,7.03,5.88,12.73,13.13,12.73s13.13-5.7,13.13-12.73v-13.03c0-7.03-5.88-12.73-13.13-12.73Zm8.29,25.5c0,4.34-3.63,7.86-8.11,7.86h-.35c-4.48,0-8.11-3.52-8.11-7.86v-12.51c0-4.34,3.63-7.86,8.11-7.86h.35c4.48,0,8.11,3.52,8.11,7.86v12.51Z"/>
  </g>
  <g>
    <g>
      <path class="cls-6" d="M305.05,75.3h-3.2s-16.17,0-16.17,0c-3.46,0-6.28,2.78-6.28,6.2v2.09h8.55s5.77,0,5.77,0h2.61s5.52,0,5.52,0h1.94c3.01,0,5.46-2.44,5.46-5.46v-2.84h-4.19Z"/>
      <path class="cls-5" d="M302.43,100.34h-6.1s-8.38,0-8.38,0h-8.55s0,22.16,0,22.16v3.59s0,15.1,0,15.1h3.1c3.01,0,5.45-2.44,5.45-5.45v-9.64s0-3.59,0-3.59v-13.78s15.14,0,15.14,0c3.01,0,5.46-2.44,5.46-5.46v-2.92h-4.19s-1.93,0-1.93,0Z"/>
    </g>
    <path class="cls-2" d="M353.32,74.86c-2.27,0-4.1,1.84-4.1,4.1h0v2.07s0,42.96,0,42.96c0,5.2-3.76,9.42-8.38,9.42s-8.38-4.32-8.38-9.42v-42.6s0-2.43,0-2.43h0c0-2.27-1.84-4.1-4.1-4.1h-4.1v4.1s0,2.43,0,2.43v42.6c0,10.89,8.61,17.63,16.58,17.63,9.35,0,16.67-7.74,16.67-17.63v-42.96s0-2.07,0-2.07v-4.1h-4.19Z"/>
    <g>
      <path class="cls-4" d="M402.36,75.91h-6.09s-14.57,0-14.57,0h-4.43c-3.01,0-5.46,2.44-5.46,5.46v3.01h4.19s5.7,0,5.7,0h1.3s1.9,0,1.9,0h8.55s1.91,0,1.91,0h.9s4.82,0,4.82,0c3.01,0,5.46-2.44,5.46-5.46v-3.01h-4.19Z"/>
      <path class="cls-8" d="M384.91,105.81v8.46s0,15.36,0,15.36v3.84s0,3.8,0,3.8v4.36h3.1c3.01,0,5.46-2.44,5.46-5.46v-2.71s0-3.84,0-3.84v-15.36s0-13.92,0-13.92h-3.09c-3.02,0-5.46,2.45-5.46,5.46Z"/>
    </g>
    <path class="cls-15" d="M488.24,110.48c.86-.21,2.11-.62,3.63-1.5,2.69-1.56,2.92-1.94,2.92-1.94,.35-.26,.65-.56,.92-.83,2.82-2.91,4.44-6.63,4.63-10.54l.12-3.25c0-2.67-.22-3.56-.22-3.56-.44-3.46-2-6.72-4.53-9.32-3.05-3.05-6.96-4.67-11.3-4.67h-6.65s-1.64,0-1.64,0h-6.28v2.92c0,3.01,2.44,5.45,5.46,5.45h2.16s.31,0,.31,0h6.65c3.39,0,6.31,2.43,7.2,5.61,0,0,.23,.85,.33,3.29,.09,2.26-.07,3.21-.07,3.21-.24,3.91-3.54,7.14-7.46,7.14h-1.92c-1.33,0-2.5,.63-3.26,1.59-.06,.07-.12,.14-.17,.21-.02,.03-.04,.06-.06,.1-.9,1.23-1.1,2.9-.35,4.34l12.66,32.54,9.34-.09-12.39-30.71Z"/>
    <path class="cls-14" d="M541.41,75.3s0,0-.01,0h-19.37c-3.46,0-6.28,2.78-6.28,6.2v2.09h8.55s5.11,0,5.11,0h6.79s3.93,0,3.93,0c3.01,0,5.46-2.44,5.46-5.46v-2.84h-4.18Z"/>
    <g>
      <path class="cls-11" d="M539.43,108.72c3.01,0,5.46-2.44,5.46-5.46v-2.92h-4.19s-1.93,0-1.93,0h-6.1s-8.38,0-8.38,0h-3.1c-3.01,0-5.46,2.44-5.46,5.46v2.92h8.55s15.14,0,15.14,0Z"/>
      <path class="cls-10" d="M541.4,132.98h-4.1s-13,0-13,0h-8.55v2.09s0,.67,0,.67c0,3.01,2.43,5.44,5.44,5.46l16.12,.06v.02h2.84c3.01,0,5.46-2.44,5.46-5.46v-2.84h-4.19Z"/>
    </g>
    <path class="cls-13" d="M449.93,76.44c-2.27,0-4.1,1.84-4.1,4.1h0v2.07s0,42.96,0,42.96c0,5.2-3.76,9.43-8.38,9.43-4.54,0-8.38-4.32-8.38-9.43v-42.6s0-2.43,0-2.43h0c0-2.27-1.84-4.1-4.1-4.1h-4.1v4.1s0,2.43,0,2.43v42.6c0,10.89,8.61,17.63,16.58,17.63,9.35,0,16.67-7.74,16.67-17.63v-42.96s0-2.07,0-2.07v-4.1h-4.19Z"/>
  </g>
  <g>
    <path class="cls-12" d="M1006.35,103.36c4.14-2.8,6.23-5.27,6.23-11.67,0-11.43-6.14-15.8-16.84-15.8h-5.31s-8.92,0-8.92,0v2.84c0,3.01,2.44,5.46,5.46,5.46h3.01s.45,0,.45,0h1.62s4.56,0,4.56,0c5.6,0,7.59,2.82,7.59,7.51,0,4.72-2.84,7.42-7.59,7.42h-4.56s-2.07,0-2.07,0h-3.01c-3.01,0-5.46,2.44-5.46,5.46v3.27h8.47s3.35,0,3.35,0h3.8c5.04,0,7.59,5.82,7.59,13,0,2.48-.55,12.74-7.68,12.74h-3.71s-.95,0-.95,0h-2.4s-3.01,0-3.01,0c-3.01,0-5.46,2.44-5.46,5.46v2.84h5.06s5.81,0,5.81,0h4.14c11.1,0,16.49-8.35,16.49-21.03,0-7.71-2.06-14.65-6.67-17.47Z"/>
    <path class="cls-16" d="M950.34,79.1c-.53-2.03-2.22-3.34-4.32-3.34s-3.81,1.31-4.38,3.33l-15.88,58.29-1.42,5.22h8.67s2.84-10.34,2.84-10.34l2.87-10.56h0s1.52-5.58,1.52-5.58l.02-.06,5.75-21.07,7.28,26.7h-6.15c-3.01,0-5.45,2.44-5.45,5.45v2.84h2.79s.59,0,.59,0h4.23s6.24,0,6.24,0h8.77s-13.94-50.9-13.94-50.9Z"/>
    <path class="cls-17" d="M907.32,133.49c-9.83,0-17.8-7.97-17.8-17.8v-32.07s0-2.71,0-2.71c0-3.01-2.44-5.45-5.45-5.45h-3.19v8.16s0,31.81,0,31.81c0,14.6,11.84,26.44,26.44,26.44,2.36,0,4.28-1.88,4.28-4.19,0-2.31-1.92-4.19-4.28-4.19Z"/>
  </g>
  <g>
    <path class="cls-19" d="M765.05,141.98c-8.15,0-16.58-6.6-16.58-17.63v-31.42c0-10.94,8.61-17.71,16.58-17.71s16.67,6.77,16.67,17.71v31.42c0,11.03-8.48,17.63-16.67,17.63Zm0-58.47c-4.62,0-8.38,4.23-8.38,9.42v31.42c0,5.2,3.76,9.42,8.38,9.42,4.62,0,8.38-4.23,8.38-9.42v-31.42c0-5.2-3.76-9.42-8.38-9.42Z"/>
    <path class="cls-18" d="M634.7,75.13h-5.02c-1.84,0-3.49,1.24-4,3.04l-10.83,45.35-10.84-45.37c-.51-1.78-2.15-3.02-3.99-3.02h-5.02s1.19,4.99,1.19,4.99l.41,1.71,2.23,9.34,11.24,47.08c.57,2.27,2.45,3.73,4.79,3.73s4.22-1.47,4.79-3.74l13.87-58.11h0s1.19-5,1.19-5Z"/>
    <path class="cls-23" d="M648.36,75.13v4.45s0,56.86,0,56.86c0,3.01,2.44,5.46,5.46,5.46h3.1v-4.36s0-56.94,0-56.94c0-3.01-2.44-5.46-5.46-5.46h-3.1Z"/>
    <path class="cls-24" d="M705.21,85.04c-.23-.63-.51-1.19-.51-1.19-2.58-5.35-7.95-8.54-14.36-8.54-9.2,0-15.88,6.53-15.88,15.54,.01,1.36,0,0,0,1.68,0,0,3.83,.12,5.09-.04,.81-.1,1.49-.28,2.71-.81,0,0,.88-.56,1.1-.83,1.57-1.93,2.26-6.46,6.98-6.72,2.32-.13,3.67,.65,5.13,1.87,0,0,2.12,2.43,4.86,2.5,4.18,.1,5.01-3.06,5.01-3.06,0,0,.13,.35-.14-.4Z"/>
    <path class="cls-22" d="M681.93,129.06c1.33,3.32,4.14,5.06,8.15,5.06,5.74,0,9.16-3.65,9.16-9.77,0-3.35-.9-5.7-3.13-7.88-1.56-1.52-4.03-2.98-6.19-4.5,0,0-2.15-1.26-2.07-4.6,.08-3.34,1.73-6.08,1.73-6.08,0,0,6.33,4.68,8.93,6.47,3.2,2.2,9.64,6.59,9.64,16.6,0,12.84-9.07,18.59-18.07,18.59-9.59,0-15.9-6.41-17.18-12.74-.39-1.34-.59-3.23-.59-3.23,0,0,3.12-1.69,6.5-.95,2.51,.55,3.12,3.05,3.12,3.05Z"/>
    <path class="cls-20" d="M828.11,75.65c-3.01,0-5.46,2.44-5.46,5.46v1.13s0,38.66,0,38.66l-12.67-40.31c-.92-2.94-3.66-4.91-6.83-4.93h-5.37v5.45s0,41.17,0,41.17h2.92c3.01,0,5.46-2.44,5.46-5.46v-20.97s12.94,40.94,12.94,40.94c.93,2.89,3.59,4.84,6.61,4.84h5.24v-5.15s0-54.24,0-54.24v-6.58h-2.84Z"/>
    <path class="cls-21" d="M723.86,75.43v4.45s0,56.86,0,56.86c0,3.01,2.44,5.46,5.46,5.46h3.1v-4.36s0-56.94,0-56.94c0-3.01-2.44-5.46-5.46-5.46h-3.1Z"/>
  </g>
</svg>